<?xml version="1.0" standalone="no"?><!DOCTYPE svg PUBLIC "-//W3C//DTD SVG 1.1//EN" "http://www.w3.org/Graphics/SVG/1.1/DTD/svg11.dtd"><svg t="1587714936016" class="icon" viewBox="0 0 1024 1024" version="1.1" xmlns="http://www.w3.org/2000/svg" p-id="11663" xmlns:xlink="http://www.w3.org/1999/xlink" width="200" height="200"><defs><style type="text/css"></style></defs><path d="M512 918.689c-72.282 0-136.913-14.114-192.097-41.953-50.597-25.523-93.415-62.588-127.265-110.161-30.153-42.376-53.019-92.805-67.961-149.884-13.375-51.087-20.157-106.274-20.157-164.025 0-15.155 12.286-27.441 27.441-27.441s27.441 12.286 27.441 27.441c0 96.45 25.427 411.141 352.598 411.141 327.172 0 352.599-314.691 352.599-411.141 0-15.155 12.286-27.441 27.44-27.441 15.155 0 27.441 12.286 27.441 27.441 0 57.683-6.843 112.884-20.338 164.072-15.038 57.036-38.002 107.457-68.252 149.863-33.918 47.548-76.744 84.602-127.292 110.13-55.126 27.842-119.59 41.958-191.598 41.958z" p-id="11664"></path><path d="M885.179 480.115H138.821c-15.155 0-27.441-12.286-27.441-27.441s12.286-27.44 27.441-27.44h746.357c15.155 0 27.44 12.286 27.44 27.44s-12.284 27.441-27.439 27.441zM512 686.371c-41.104 0-74.545-33.44-74.545-74.544s33.44-74.545 74.545-74.545 74.544 33.44 74.544 74.545c0 41.104-33.44 74.544-74.544 74.544z m0-112.501c-20.929 0-37.957 17.027-37.957 37.957 0 20.929 17.027 37.956 37.957 37.956s37.957-17.027 37.957-37.956c0-20.93-17.027-37.957-37.957-37.957z" p-id="11665"></path><path d="M512 759.537c-10.104 0-18.294-8.19-18.294-18.294v-63.105c0-10.104 8.19-18.295 18.294-18.295s18.294 8.19 18.294 18.295v63.105c0 10.104-8.19 18.294-18.294 18.294zM815.29 477.837c-15.155 0-27.441-12.286-27.441-27.441 0-153.571-124.939-278.51-278.51-278.51-122.753 0-214.941 60.397-252.925 165.706-5.142 14.257-20.867 21.646-35.123 16.503-14.257-5.142-21.645-20.867-16.503-35.124 22.763-63.108 63.02-114.902 116.421-149.783 52.265-34.139 117.319-52.184 188.129-52.184 44.997 0 88.66 8.819 129.78 26.211 39.704 16.792 75.354 40.828 105.964 71.437s54.645 66.261 71.438 105.964c17.393 41.12 26.211 84.784 26.211 129.779-0.001 15.157-12.287 27.442-27.441 27.442z" p-id="11666"></path><path d="M718.335 384.534a9.153 9.153 0 0 1-8.702-6.336c-27.597-85.369-106.471-142.727-196.266-142.727a9.146 9.146 0 1 1 0-18.293c48.425 0 94.543 15.176 133.365 43.885 38.052 28.139 65.821 66.698 80.308 111.508a9.147 9.147 0 0 1-8.705 11.963z" p-id="11667"></path></svg>