<svg t="1614823895194" class="icon" viewBox="0 0 1024 1024" version="1.1" xmlns="http://www.w3.org/2000/svg" p-id="9575"
     width="200" height="200">
  <path
    d="M827.733333 857.6H981.333333V810.666667h-128v-21.333334h102.4v-46.933333H853.333333v-25.6c42.666667-4.266667 81.066667-8.533333 115.2-17.066667l-38.4-42.666666c-59.733333 12.8-157.866667 21.333333-243.2 21.333333 4.266667 12.8 12.8 34.133333 12.8 42.666667 34.133333 0 68.266667 0 106.666667-4.266667v21.333333h-102.4v46.933334h102.4v25.6h-128v46.933333h85.333333c-21.333333 25.6-42.666667 46.933333-51.2 51.2-8.533333 8.533333-17.066667 12.8-25.6 12.8 4.266667 12.8 12.8 38.4 17.066667 46.933333 17.066667-8.533333 42.666667-8.533333 213.333333-25.6 8.533333 12.8 12.8 25.6 17.066667 34.133334l51.2-21.333334c-12.8-29.866667-42.666667-68.266667-72.533333-98.133333l-46.933334 17.066667c8.533333 8.533333 12.8 17.066667 21.333334 25.6l-110.933334 8.533333c17.066667-8.533333 38.4-34.133333 51.2-51.2z"
    p-id="9576"></path>
  <path
    d="M563.2 853.333333H128V290.133333h682.666667v251.733334c0 25.6 17.066667 42.666667 42.666666 42.666666s42.666667-17.066667 42.666667-42.666666V247.466667v-4.266667-8.533333c0-4.266667-4.266667-4.266667-4.266667-8.533334v-4.266666L768 59.733333c-8.533333-12.8-21.333333-17.066667-34.133333-17.066666H204.8c-12.8 0-25.6 4.266667-34.133333 17.066666L51.2 221.866667v4.266666c0 4.266667-4.266667 4.266667-4.266667 8.533334V853.333333c0 46.933333 38.4 85.333333 85.333334 85.333334h435.2c25.6 0 42.666667-17.066667 42.666666-42.666667s-25.6-42.666667-46.933333-42.666667zM226.133333 128h482.133334L768 204.8H170.666667L226.133333 128z"
    p-id="9577"></path>
  <path
    d="M597.333333 529.066667H341.333333c-25.6 0-42.666667 17.066667-42.666666 42.666666s17.066667 42.666667 42.666666 42.666667h256c25.6 0 42.666667-17.066667 42.666667-42.666667s-17.066667-42.666667-42.666667-42.666666z"
    p-id="9578"></path>
</svg>
