<?xml version="1.0" standalone="no"?><!DOCTYPE svg PUBLIC "-//W3C//DTD SVG 1.1//EN" "http://www.w3.org/Graphics/SVG/1.1/DTD/svg11.dtd"><svg t="1598324119059" class="icon" viewBox="0 0 1024 1024" version="1.1" xmlns="http://www.w3.org/2000/svg" p-id="1725" xmlns:xlink="http://www.w3.org/1999/xlink" width="200" height="200"><defs><style type="text/css"></style></defs><path d="M510.287497 64.509223c-249.02668 0-446.947402 197.933001-446.947402 446.947402 0 249.02054 197.920722 446.958658 446.947402 446.958658 249.013377 0 446.958658-197.939141 446.958658-446.958658C957.246155 262.442224 759.300874 64.509223 510.287497 64.509223L510.287497 64.509223zM784.847713 786.015817c-76.628238 76.621075-172.399465 114.934682-274.560216 114.934682-102.161774 0-204.323549-38.313607-274.561239-114.934682-70.225411-76.614935-114.928542-172.392302-114.928542-274.560216 0-102.155634 38.313607-204.317409 114.928542-274.554076 76.627215-70.231551 172.398442-114.934682 274.561239-114.934682 102.160751 0 204.321502 38.319747 274.560216 114.934682 70.237691 76.621075 114.928542 172.398442 114.928542 274.554076C899.775232 613.624539 861.461625 715.77915 784.847713 786.015817L784.847713 786.015817zM318.73174 422.067758c0-15.040555 6.195096-29.990035 16.82827-40.629349 10.645454-10.639315 25.594935-16.82827 40.641629-16.82827 15.046694 0 29.996175 6.188956 40.641629 16.82827 10.620895 10.639315 16.829294 25.588795 16.829294 40.629349 0 15.046694-6.207375 30.002314-16.829294 40.641629-10.645454 10.633175-25.594935 16.829294-40.641629 16.829294-15.046694 0-29.996175-6.196119-40.641629-16.829294C324.926836 452.070072 318.73174 437.114452 318.73174 422.067758L318.73174 422.067758zM606.058724 422.067758c0-15.040555 6.196119-29.990035 16.82827-40.629349 10.645454-10.639315 25.594935-16.82827 40.642652-16.82827 15.045671 0 29.995151 6.188956 40.628326 16.82827 10.645454 10.639315 16.82827 25.588795 16.82827 40.629349 0 15.046694-6.182816 30.002314-16.82827 40.641629-10.633175 10.633175-25.582655 16.829294-40.628326 16.829294-15.047718 0-29.996175-6.196119-40.642652-16.829294C612.254843 452.070072 606.058724 437.114452 606.058724 422.067758L606.058724 422.067758zM516.677021 632.780831c-89.395006 0-166.022221 38.307468-210.713073 102.160751 0 0-6.389524 19.157315 6.389524 31.924083 12.767791 12.767791 38.301328 12.767791 38.301328 12.767791 6.389524-12.767791 19.168572-25.53456 31.924083-38.313607 38.313607-31.917944 83.004459-44.691875 134.098137-44.691875 51.079352 0 102.160751 19.151176 134.084834 44.691875l31.92306 31.930223c0 0 19.157315 0 31.92306-6.383384 12.767791-12.767791 12.767791-25.546839 12.767791-25.546839C682.685939 671.088298 606.058724 632.780831 516.677021 632.780831L516.677021 632.780831zM516.677021 632.780831" p-id="1726"></path></svg>