<svg t="1614824979261" class="icon" viewBox="0 0 1024 1024" version="1.1" xmlns="http://www.w3.org/2000/svg"
     p-id="18306" width="200" height="200">
  <path
    d="M519.168 507.733333c-6.058667 0-12.117333-1.493333-16.64-2.986666L90.666667 338.176c-18.176-6.016-28.757333-22.698667-28.757334-42.368 0-19.669333 10.581333-34.816 28.757334-42.410667l410.282666-164.992a42.410667 42.410667 0 0 1 33.28 0l411.818667 164.992c16.64 7.594667 28.757333 24.234667 28.757333 42.410667 0 18.176-10.581333 34.816-28.757333 42.410667l-410.282667 164.992a39.466667 39.466667 0 0 1-16.64 4.565333zM228.48 295.850667l289.152 116.565333 289.194667-116.565333L519.168 179.2 228.48 295.808z"
    p-id="18307"></path>
  <path
    d="M519.168 930.133333c-6.058667 0-12.117333-1.493333-16.64-2.986666L90.666667 762.026667c-16.64-7.552-28.8-24.192-28.8-42.368V295.765333c0-25.728 19.712-45.397333 45.44-45.397333s45.44 19.669333 45.44 45.397333v392.106667l366.378666 146.901333 366.378667-146.858666v-392.106667c0-25.770667 19.669333-45.44 45.397333-45.44s45.44 19.669333 45.44 45.397333v423.936c0 18.176-10.624 34.816-28.8 42.368l-411.776 165.034667c-6.058667 1.536-10.581333 3.029333-16.64 3.029333z"
    p-id="18308"></path>
  <path
    d="M519.168 930.133333a44.629333 44.629333 0 0 1-45.44-45.44V460.8c0-25.728 19.669333-45.44 45.44-45.44 25.728 0 45.397333 19.712 45.397333 45.44v423.893333c0 25.770667-21.205333 45.44-45.397333 45.44zM734.122667 422.954667c-6.058667 0-10.581333-1.536-16.64-3.029334L304.170667 254.890667c-22.698667-9.088-34.816-36.309333-25.728-59.050667 10.581333-22.698667 36.309333-34.816 59.050666-25.728l411.776 165.034667c22.698667 9.088 34.816 36.309333 25.728 59.050666a42.24 42.24 0 0 1-40.874666 28.757334z"
    p-id="18309"></path>
</svg>
