<svg t="1614822515899" class="icon" viewBox="0 0 1024 1024" version="1.1" xmlns="http://www.w3.org/2000/svg" p-id="3608"
     width="200" height="200">
  <path
    d="M810.666667 682.666667a42.666667 42.666667 0 0 1 42.666666 42.666666v170.666667a42.666667 42.666667 0 0 1-42.666666 42.666667H213.333333a42.666667 42.666667 0 0 1-42.666666-42.666667v-170.666667a42.666667 42.666667 0 0 1 42.666666-42.666666h597.333334z m-21.333334 64H234.666667v128h554.666666v-128z m-98.517333 32a32 32 0 1 1 0 64 32 32 0 0 1 0-64zM810.666667 405.333333a42.666667 42.666667 0 0 1 42.666666 42.666667v170.666667a42.666667 42.666667 0 0 1-42.666666 42.666666H213.333333a42.666667 42.666667 0 0 1-42.666666-42.666666v-170.666667a42.666667 42.666667 0 0 1 42.666666-42.666667h597.333334z m-21.333334 64H234.666667v128h554.666666v-128z m-98.517333 32a32 32 0 1 1 0 64 32 32 0 0 1 0-64zM810.666667 128a42.666667 42.666667 0 0 1 42.666666 42.666667v170.666666a42.666667 42.666667 0 0 1-42.666666 42.666667H213.333333a42.666667 42.666667 0 0 1-42.666666-42.666667V170.666667a42.666667 42.666667 0 0 1 42.666666-42.666667h597.333334z m-21.333334 64H234.666667v128h554.666666V192z m-98.517333 32a32 32 0 1 1 0 64 32 32 0 0 1 0-64z"
    p-id="3609"></path>
</svg>
